<?xml version="1.0" encoding="UTF-8"?>
<svg clip-rule="evenodd" fill-rule="evenodd" stroke-linejoin="round" stroke-miterlimit="2" version="1.1" viewBox="0 0 248 128" xmlns="http://www.w3.org/2000/svg">
 <g transform="matrix(1.0163 0 0 1.0204 -1.9056 -2.9567)">
  <path d="m23.523 127.96 0.029-1.177c-5.265-4.596-13.206-11.034-13.206-11.034-0.168-0.136-0.292-0.317-0.359-0.522l-8.056-24.641c-0.156-0.476 0.023-0.997 0.438-1.276s0.965-0.249 1.347 0.075c0 0 8.043 6.809 11.63 9.536 0.494 0.375 1.028 0.739 1.248 0.887 4.836-0.028 7.492-2.333 8.908-4.484-3.104-6.213-7.627-14.566-7.627-14.566-0.102-0.19-0.148-0.405-0.131-0.619l2.002-25.848c0.039-0.499 0.404-0.911 0.894-1.01 0.491-0.099 0.987 0.14 1.216 0.585 0 0 4.819 9.372 7.087 13.265 0.312 0.536 0.666 1.077 0.813 1.297 7.037 2.872 11.254-1.514 12.428-3.014-0.483-6.961-1.514-16.822-1.514-16.822-0.022-0.214 0.018-0.43 0.115-0.622l11.728-23.121c0.226-0.446 0.721-0.688 1.212-0.592s0.858 0.506 0.9 1.005c0 0 0.872 10.502 1.48 14.967 0.084 0.615 0.204 1.249 0.255 1.509 3.556 3.514 7.183 3.661 9.719 3.069l2.698-1.919 0.318-0.204-0.101-0.371c-0.038-0.285 0.016-0.483 0.054-0.591 2.233-6.324 5.94-18.779 5.94-18.779 0.061-0.206 0.181-0.39 0.344-0.53l19.696-16.858c0.38-0.326 0.93-0.359 1.347-0.082 0.416 0.277 0.598 0.797 0.446 1.273 0 0-3.221 10.034-4.371 14.391-0.159 0.6-0.291 1.232-0.343 1.491 1.719 4.093 4.51 5.755 6.913 6.379 2.73-0.755 5.505-1.399 8.326-1.903l0.015-0.124c0.074-0.278 0.2-0.441 0.276-0.526 4.479-4.992 12.663-15.086 12.663-15.086 0.135-0.167 0.316-0.292 0.521-0.359l24.642-8.056c0.475-0.155 0.996 0.024 1.275 0.439 0.28 0.415 0.249 0.965-0.074 1.347 0 0-6.809 8.043-9.537 11.63-0.375 0.494-0.739 1.028-0.886 1.247 0.027 4.687 2.192 7.326 4.289 8.767l1.215 0.155 4.903 0.876 0.051-0.09c0.175-0.228 0.353-0.33 0.456-0.379 6.05-2.896 17.476-9.085 17.476-9.085 0.19-0.103 0.404-0.149 0.619-0.132l25.848 1.997c0.499 0.039 0.912 0.404 1.011 0.894 0.098 0.491-0.14 0.987-0.585 1.216 0 0-9.371 4.821-13.264 7.09-0.536 0.312-1.077 0.666-1.297 0.813-1.656 4.059-0.897 7.179 0.332 9.318l2.02 1.162 1.23 0.789 0.24-0.187c0.249-0.144 0.452-0.171 0.566-0.177 6.698-0.362 19.622-1.713 19.622-1.713 0.214-0.023 0.43 0.017 0.622 0.115l23.121 11.727c0.446 0.227 0.688 0.722 0.592 1.213-0.096 0.49-0.507 0.858-1.005 0.899 0 0-10.502 0.873-14.967 1.481-0.615 0.083-1.249 0.204-1.509 0.255-2.461 2.49-3.271 5.015-3.327 7.177l0.722 0.833 0.466-0.128c0.286-0.038 0.484 0.015 0.591 0.053 6.327 2.226 18.786 5.92 18.786 5.92 0.206 0.061 0.391 0.181 0.531 0.344l16.879 19.678c0.326 0.38 0.359 0.93 0.083 1.346-0.277 0.417-0.796 0.6-1.273 0.448 0 0-10.037-3.21-14.395-4.356-0.6-0.158-1.233-0.289-1.492-0.341-2.026 0.853-3.455 1.969-4.443 3.18l0.611 1.55 0.068 9e-3c0.278 0.074 0.441 0.199 0.526 0.275 4.992 4.48 15.086 12.663 15.086 12.663 0.167 0.136 0.292 0.317 0.359 0.521l7.901 24.168h-3.622c-2.619-2.197-7.178-5.99-9.639-7.861-0.494-0.376-1.028-0.739-1.247-0.887-0.966 6e-3 -1.845 0.102-2.641 0.288 0.259 2.79 0.376 5.611 0.376 8.46h-51.849c-1.068-25.89-23.377-46.639-50.756-46.639-27.38 0-49.689 20.749-50.757 46.639h-51.848zm56.006 0c1.069-23.646 21.564-42.485 46.599-42.485s45.529 18.839 46.598 42.485h-28.56c0-9.956-8.083-18.039-18.038-18.039-9.956 0-18.039 8.083-18.039 18.039h-28.56z" />
 </g>
</svg>
