<?xml version="1.0" encoding="UTF-8" standalone="no"?>
<!DOCTYPE svg PUBLIC "-//W3C//DTD SVG 1.1//EN" "http://www.w3.org/Graphics/SVG/1.1/DTD/svg11.dtd">
<svg width="100%" height="100%" viewBox="0 0 248 128" version="1.1" xmlns="http://www.w3.org/2000/svg" xmlns:xlink="http://www.w3.org/1999/xlink" xml:space="preserve"  style="fill-rule:evenodd;clip-rule:evenodd;stroke-linejoin:round;stroke-miterlimit:2;">
    <g transform="matrix(1.01626,0,0,1.02035,-1.90563,-2.95673)">
        <path d="M23.523,127.96L23.552,126.783C18.287,122.187 10.346,115.749 10.346,115.749C10.178,115.613 10.054,115.432 9.987,115.227L1.931,90.586C1.775,90.11 1.954,89.589 2.369,89.31C2.784,89.031 3.334,89.061 3.716,89.385C3.716,89.385 11.759,96.194 15.346,98.921C15.84,99.296 16.374,99.66 16.594,99.808C21.43,99.78 24.086,97.475 25.502,95.324C22.398,89.111 17.875,80.758 17.875,80.758C17.773,80.568 17.727,80.353 17.744,80.139L19.746,54.291C19.785,53.792 20.15,53.38 20.64,53.281C21.131,53.182 21.627,53.421 21.856,53.866C21.856,53.866 26.675,63.238 28.943,67.131C29.255,67.667 29.609,68.208 29.756,68.428C36.793,71.3 41.01,66.914 42.184,65.414C41.701,58.453 40.67,48.592 40.67,48.592C40.648,48.378 40.688,48.162 40.785,47.97L52.513,24.849C52.739,24.403 53.234,24.161 53.725,24.257C54.216,24.353 54.583,24.763 54.625,25.262C54.625,25.262 55.497,35.764 56.105,40.229C56.189,40.844 56.309,41.478 56.36,41.738C59.916,45.252 63.543,45.399 66.079,44.807L68.777,42.888L69.095,42.684L68.994,42.313C68.956,42.028 69.01,41.83 69.048,41.722C71.281,35.398 74.988,22.943 74.988,22.943C75.049,22.737 75.169,22.553 75.332,22.413L95.028,5.555C95.408,5.229 95.958,5.196 96.375,5.473C96.791,5.75 96.973,6.27 96.821,6.746C96.821,6.746 93.6,16.78 92.45,21.137C92.291,21.737 92.159,22.369 92.107,22.628C93.826,26.721 96.617,28.383 99.02,29.007C101.75,28.252 104.525,27.608 107.346,27.104L107.361,26.98C107.435,26.702 107.561,26.539 107.637,26.454C112.116,21.462 120.3,11.368 120.3,11.368C120.435,11.201 120.616,11.076 120.821,11.009L145.463,2.953C145.938,2.798 146.459,2.977 146.738,3.392C147.018,3.807 146.987,4.357 146.664,4.739C146.664,4.739 139.855,12.782 137.127,16.369C136.752,16.863 136.388,17.397 136.241,17.616C136.268,22.303 138.433,24.942 140.53,26.383L141.745,26.538L146.648,27.414L146.699,27.324C146.874,27.096 147.052,26.994 147.155,26.945C153.205,24.049 164.631,17.86 164.631,17.86C164.821,17.757 165.035,17.711 165.25,17.728L191.098,19.725C191.597,19.764 192.01,20.129 192.109,20.619C192.207,21.11 191.969,21.606 191.524,21.835C191.524,21.835 182.153,26.656 178.26,28.925C177.724,29.237 177.183,29.591 176.963,29.738C175.307,33.797 176.066,36.917 177.295,39.056L179.315,40.218L180.545,41.007L180.785,40.82C181.034,40.676 181.237,40.649 181.351,40.643C188.049,40.281 200.973,38.93 200.973,38.93C201.187,38.907 201.403,38.947 201.595,39.045L224.716,50.772C225.162,50.999 225.404,51.494 225.308,51.985C225.212,52.475 224.801,52.843 224.303,52.884C224.303,52.884 213.801,53.757 209.336,54.365C208.721,54.448 208.087,54.569 207.827,54.62C205.366,57.11 204.556,59.635 204.5,61.797L205.222,62.63L205.688,62.502C205.974,62.464 206.172,62.517 206.279,62.555C212.606,64.781 225.065,68.475 225.065,68.475C225.271,68.536 225.456,68.656 225.596,68.819L242.475,88.497C242.801,88.877 242.834,89.427 242.558,89.843C242.281,90.26 241.762,90.443 241.285,90.291C241.285,90.291 231.248,87.081 226.89,85.935C226.29,85.777 225.657,85.646 225.398,85.594C223.372,86.447 221.943,87.563 220.955,88.774L221.566,90.324L221.634,90.333C221.912,90.407 222.075,90.532 222.16,90.608C227.152,95.088 237.246,103.271 237.246,103.271C237.413,103.407 237.538,103.588 237.605,103.792L245.506,127.96L241.884,127.96C239.265,125.763 234.706,121.97 232.245,120.099C231.751,119.723 231.217,119.36 230.998,119.212C230.032,119.218 229.153,119.314 228.357,119.5C228.616,122.29 228.733,125.111 228.733,127.96L176.884,127.96C175.816,102.07 153.507,81.321 126.128,81.321C98.748,81.321 76.439,102.07 75.371,127.96L23.523,127.96ZM79.529,127.96C80.598,104.314 101.093,85.475 126.128,85.475C151.163,85.475 171.657,104.314 172.726,127.96L144.166,127.96C144.166,118.004 136.083,109.921 126.128,109.921C116.172,109.921 108.089,118.004 108.089,127.96L79.529,127.96Z" style="fill:white;"/>
    </g>
</svg>
